<svg id="visual" viewBox="0 0 380 198" width="380" height="198" xmlns="http://www.w3.org/2000/svg" xmlns:xlink="http://www.w3.org/1999/xlink" version="1.1"><g transform="translate(200.35823912700738 100.94108264301565)"><path d="M59.6 -79.7C70.7 -74 68.6 -47.8 73.5 -25.6C78.3 -3.4 90 14.8 90.5 34.3C91 53.9 80.2 74.7 63.2 76.9C46.2 79.1 23.1 62.8 0.9 61.6C-21.4 60.3 -42.7 74.3 -61.7 72.7C-80.8 71.1 -97.4 54.1 -105.6 33.3C-113.8 12.5 -113.5 -12.2 -101.7 -28.3C-89.9 -44.5 -66.7 -52.2 -47.9 -55.4C-29 -58.6 -14.5 -57.3 4.9 -64C24.2 -70.7 48.5 -85.4 59.6 -79.7" fill="#BB004B"></path></g></svg>