<svg id="visual" viewBox="0 0 304 100" width="304" height="100" xmlns="http://www.w3.org/2000/svg" xmlns:xlink="http://www.w3.org/1999/xlink" version="1.1"><g><g transform="translate(150 42)"><path d="M12.3 -14.8C15.7 -11.8 18.1 -7.7 18 -3.8C17.8 0 15.2 3.6 12.4 6C9.7 8.4 6.8 9.5 4.3 9.2C1.9 8.9 -0.1 7.3 -3.3 7.1C-6.5 6.8 -11 7.9 -13 6.5C-15 5.1 -14.6 1.3 -14.1 -2.6C-13.5 -6.6 -13 -10.7 -10.6 -13.9C-8.3 -17.1 -4.1 -19.4 0.1 -19.6C4.4 -19.8 8.9 -17.8 12.3 -14.8Z" fill="#F7760E"></path></g><g transform="translate(241 53)"><path d="M5.7 -6C7.9 -4.9 10.7 -3.6 11.6 -1.6C12.4 0.4 11.4 3.2 9.7 5.1C8 7 5.6 8 3.1 9C0.7 10.1 -1.9 11.2 -3.5 10.3C-5 9.4 -5.5 6.4 -6 4.2C-6.5 1.9 -6.9 0.3 -6.7 -1.2C-6.5 -2.8 -5.7 -4.2 -4.4 -5.6C-3.2 -6.9 -1.6 -8 0.1 -8.1C1.7 -8.2 3.4 -7.2 5.7 -6Z" fill="#F7760E"></path></g><g transform="translate(200 72)"><path d="M7 -10.1C8.6 -7 9 -4.3 8.6 -2.2C8.3 0 7.1 1.7 6.4 4.3C5.6 6.8 5.3 10.2 3.7 11.2C2.2 12.1 -0.5 10.6 -4.2 9.9C-7.8 9.3 -12.2 9.4 -12.7 7.8C-13.1 6.1 -9.6 2.5 -7.8 -0.3C-5.9 -3 -5.9 -4.9 -4.9 -8.1C-3.8 -11.3 -1.9 -15.7 0.4 -16.1C2.7 -16.6 5.4 -13.1 7 -10.1Z" fill="#F7760E"></path></g><g transform="translate(103 78)"><path d="M7.6 -8.9C9.3 -7.6 9.9 -4.7 9.8 -2.2C9.6 0.3 8.8 2.4 8 5.5C7.3 8.5 6.6 12.4 4.5 13.7C2.4 15.1 -1.1 13.9 -4.8 12.7C-8.4 11.5 -12.2 10.4 -12.4 8.1C-12.7 5.8 -9.4 2.4 -7.8 -0.4C-6.1 -3.1 -6.1 -5.2 -5.1 -6.7C-4.1 -8.2 -2 -9.2 0.4 -9.7C2.9 -10.2 5.8 -10.3 7.6 -8.9Z" fill="#F7760E"></path></g><g transform="translate(57 71)"><path d="M8.2 -10.9C9.2 -9.1 7.3 -5 8.2 -1.2C9.1 2.5 12.8 6 12.2 7.2C11.7 8.3 6.9 7.1 3.4 7.8C-0.2 8.5 -2.6 11.1 -4.9 11.2C-7.2 11.3 -9.4 9 -11.3 6.3C-13.3 3.5 -15 0.3 -13.8 -1.7C-12.6 -3.7 -8.4 -4.4 -5.6 -5.9C-2.8 -7.4 -1.4 -9.7 1.1 -11C3.7 -12.4 7.3 -12.7 8.2 -10.9Z" fill="#F7760E"></path></g><g transform="translate(192 25)"><path d="M7.2 -8.6C8.5 -7.4 8.4 -4.4 9.7 -1.1C11 2.2 13.8 5.9 12.9 7.3C11.9 8.6 7.2 7.7 3.9 7.4C0.6 7.1 -1.1 7.6 -4.3 8.1C-7.5 8.6 -12 9.1 -13.2 7.4C-14.5 5.8 -12.4 2 -10.7 -1C-9.1 -3.9 -8 -6 -6.3 -7.2C-4.6 -8.3 -2.3 -8.4 0.3 -8.8C2.9 -9.2 5.8 -9.8 7.2 -8.6Z" fill="#F7760E"></path></g><g transform="translate(27 24)"><path d="M4 -6.5C5.4 -3.5 7 -2.5 7.4 -1.2C7.8 0.1 6.9 1.8 6 3.6C5.1 5.4 4.3 7.4 2.2 9.8C0.2 12.2 -3.1 14.9 -6.7 15.1C-10.3 15.2 -14.2 12.8 -16.2 9.3C-18.2 5.9 -18.4 1.3 -16.1 -1.3C-13.8 -3.8 -9 -4.4 -5.9 -7.1C-2.8 -9.7 -1.4 -14.4 -0.1 -14.4C1.3 -14.3 2.5 -9.4 4 -6.5Z" fill="#F7760E"></path></g><g transform="translate(101 33)"><path d="M4.8 -6.6C7.1 -3.7 10.6 -3.1 11.3 -1.7C11.9 -0.2 9.6 2 8.4 5.5C7.1 9 6.9 13.7 5.1 14.5C3.4 15.3 0 12.1 -2.2 9.7C-4.5 7.3 -5.7 5.7 -6.9 3.9C-8.1 2 -9.3 0.1 -10.3 -3.1C-11.3 -6.4 -12.1 -10.9 -10.4 -13.9C-8.6 -16.9 -4.3 -18.3 -1.5 -16.5C1.2 -14.6 2.4 -9.5 4.8 -6.6Z" fill="#F7760E"></path></g><g transform="translate(281 74)"><path d="M5.2 -7.5C7.1 -4.5 9.4 -3.3 9.4 -1.8C9.5 -0.3 7.4 1.4 6.6 4.7C5.8 8.1 6.2 13 4.2 15.3C2.3 17.7 -1.9 17.3 -4.2 15C-6.4 12.7 -6.7 8.3 -8.4 5C-10.1 1.7 -13.4 -0.6 -14.1 -3.6C-14.9 -6.5 -13.1 -10 -10.4 -12.8C-7.6 -15.6 -3.8 -17.7 -1.1 -16.4C1.6 -15 3.2 -10.4 5.2 -7.5Z" fill="#F7760E"></path></g><g transform="translate(279 22)"><path d="M5.8 -5.3C8.2 -4.8 11.4 -3.7 12.7 -1.5C14 0.7 13.4 4.1 11.3 5.4C9.2 6.7 5.6 6.1 2.3 7.9C-0.9 9.7 -3.8 14 -6.3 14.3C-8.7 14.7 -10.8 11.1 -12.8 7.5C-14.8 3.9 -16.7 0.3 -15.8 -2.4C-14.8 -5 -11 -6.7 -7.8 -7.1C-4.7 -7.4 -2.4 -6.4 -0.4 -5.9C1.7 -5.5 3.3 -5.7 5.8 -5.3Z" fill="#F7760E"></path></g></g></svg>