<svg id="visual" viewBox="0 0 304 100" width="304" height="100" xmlns="http://www.w3.org/2000/svg" xmlns:xlink="http://www.w3.org/1999/xlink" version="1.1"><g transform="translate(174.08866311652966 32.35685229892523)"><path d="M30.3 -34.8C45.6 -43.6 68.7 -48.3 80.3 -41.8C91.9 -35.3 91.9 -17.7 86.7 -3C81.5 11.7 71.1 23.3 69.3 46.8C67.5 70.2 74.4 105.5 64.3 108.7C54.2 111.8 27.1 82.9 7.8 69.4C-11.5 55.9 -23 57.8 -45.4 61.8C-67.7 65.7 -101 71.6 -119.1 61.6C-137.2 51.7 -140.1 25.8 -122 10.4C-104 -5 -65 -10 -51.4 -27.8C-37.8 -45.5 -49.7 -76 -45.3 -73.5C-41 -71 -20.5 -35.5 -6.5 -24.3C7.5 -13 15 -26 30.3 -34.8" fill="#000000"></path></g></svg>