<svg id="visual" viewBox="0 0 304 100" width="304" height="100" xmlns="http://www.w3.org/2000/svg" xmlns:xlink="http://www.w3.org/1999/xlink" version="1.1">
<clipPath id='work'><path d="M257 0L289 0L289 10L268 10L268 20L273 20L273 30L263 30L263 40L252 40L252 50L283 50L283 60L265 60L265 70L262 70L262 80L272 80L272 90L255 90L255 100L0 100L0 90L0 90L0 80L0 80L0 70L0 70L0 60L0 60L0 50L0 50L0 40L0 40L0 30L0 30L0 20L0 20L0 10L0 10L0 0L0 0Z" fill="#ffffff"></path><path d="M252 0L254 0L254 10L245 10L245 20L233 20L233 30L244 30L244 40L207 40L207 50L214 50L214 60L244 60L244 70L255 70L255 80L211 80L211 90L255 90L255 100L0 100L0 90L0 90L0 80L0 80L0 70L0 70L0 60L0 60L0 50L0 50L0 40L0 40L0 30L0 30L0 20L0 20L0 10L0 10L0 0L0 0Z" fill="#eeeeee"></path><path d="M199 0L188 0L188 10L183 10L183 20L184 20L184 30L194 30L194 40L202 40L202 50L202 50L202 60L204 60L204 70L209 70L209 80L212 80L212 90L173 90L173 100L0 100L0 90L0 90L0 80L0 80L0 70L0 70L0 60L0 60L0 50L0 50L0 40L0 40L0 30L0 30L0 20L0 20L0 10L0 10L0 0L0 0Z" fill="#dddddd"></path><path d="M178 0L130 0L130 10L133 10L133 20L129 20L129 30L162 30L162 40L135 40L135 50L136 50L136 60L169 60L169 70L144 70L144 80L154 80L154 90L140 90L140 100L0 100L0 90L0 90L0 80L0 80L0 70L0 70L0 60L0 60L0 50L0 50L0 40L0 40L0 30L0 30L0 20L0 20L0 10L0 10L0 0L0 0Z" fill="#cccccc"></path><path d="M101 0L123 0L123 10L95 10L95 20L110 20L110 30L126 30L126 40L125 40L125 50L136 50L136 60L128 60L128 70L114 70L114 80L120 80L120 90L107 90L107 100L0 100L0 90L0 90L0 80L0 80L0 70L0 70L0 60L0 60L0 50L0 50L0 40L0 40L0 30L0 30L0 20L0 20L0 10L0 10L0 0L0 0Z" fill="#bbbbbb"></path><path d="M74 0L91 0L91 10L56 10L56 20L101 20L101 30L77 30L77 40L103 40L103 50L79 50L79 60L83 60L83 70L86 70L86 80L57 80L57 90L97 90L97 100L0 100L0 90L0 90L0 80L0 80L0 70L0 70L0 60L0 60L0 50L0 50L0 40L0 40L0 30L0 30L0 20L0 20L0 10L0 10L0 0L0 0Z" fill="#ababab"></path><path d="M51 0L55 0L55 10L34 10L34 20L64 20L64 30L51 30L51 40L28 40L28 50L55 50L55 60L22 60L22 70L45 70L45 80L47 80L47 90L34 90L34 100L0 100L0 90L0 90L0 80L0 80L0 70L0 70L0 60L0 60L0 50L0 50L0 40L0 40L0 30L0 30L0 20L0 20L0 10L0 10L0 0L0 0Z" fill="#9b9b9b"></path>
</clipPath></svg>